<svg xmlns="http://www.w3.org/2000/svg" width="3919" height="2150" viewBox="0 0 3919 2150" version="1.1"><path d="M 701.332 0.912 C 685.199 4.996, 676.919 23.340, 684.549 38.094 C 685.436 39.811, 868.039 224.111, 1090.331 447.649 C 1392.733 751.746, 1495.192 855.360, 1497.250 859.156 C 1499.366 863.058, 1500 865.589, 1500 870.125 C 1500 879.602, 1497.425 883.749, 1485.609 893.306 C 1480.049 897.804, 1470.867 905.456, 1465.204 910.311 C 1459.541 915.166, 1453.016 919.998, 1450.704 921.047 C 1444.472 923.877, 1437.407 923.581, 1430.891 920.217 C 1427.926 918.687, 1113.425 711.785, 732 460.435 C 350.575 209.086, 37.241 2.888, 35.703 2.218 C 34.165 1.548, 30.090 1, 26.649 1 C 5.799 1, -6.218 24.772, 6.327 41.202 C 8.847 44.503, 151.037 138.626, 697.402 498.661 C 1075.747 747.978, 1386.125 952.708, 1387.129 953.617 C 1390.609 956.766, 1394.001 965.103, 1393.978 970.446 C 1393.946 977.768, 1391.411 982.374, 1379.814 996.184 C 1374.126 1002.958, 1367.323 1011.251, 1364.696 1014.613 C 1358.288 1022.816, 1351.708 1026.475, 1343.500 1026.401 C 1337.937 1026.352, 1290.035 1007.721, 685.500 770.479 C -25.495 491.458, 26.736 511.359, 16.888 515.734 C 3.770 521.563, -2.028 534.756, 2.582 548.286 C 4.807 554.817, 10.648 560.253, 19.292 563.837 C 23.256 565.481, 311.742 678.709, 660.370 815.454 C 1008.999 952.199, 1295.992 1064.976, 1298.133 1066.068 C 1302.455 1068.273, 1307.279 1074.285, 1309.063 1079.691 C 1311.624 1087.450, 1310.143 1092.252, 1298.932 1112.563 C 1293.194 1122.957, 1287.243 1132.902, 1285.706 1134.662 C 1281.697 1139.256, 1275.138 1142.147, 1268.787 1142.120 C 1265.879 1142.108, 984.841 1102.923, 644.257 1055.043 C 93.292 977.587, 24.490 968.105, 20.257 969.043 C 7.470 971.877, -1.663 985.160, 0.563 997.685 C 2.167 1006.707, 9.327 1015.346, 17.329 1017.915 C 19.073 1018.475, 292.975 1057.208, 626 1103.989 C 959.025 1150.770, 1232.862 1189.487, 1234.527 1190.027 C 1242.552 1192.628, 1249.971 1203.090, 1249.990 1211.833 C 1249.997 1214.626, 1247.011 1225.113, 1241.592 1241.333 C 1236.967 1255.175, 1232.866 1268.032, 1232.478 1269.904 L 1231.773 1273.308 1238.991 1272.637 C 1251.648 1271.461, 1282.729 1267.082, 1307.994 1262.916 C 1392.229 1249.025, 1474.115 1228.988, 1550.500 1203.576 C 1625.220 1178.717, 1679.369 1155.194, 1736 1122.994 C 1758.685 1110.095, 1796.697 1090.754, 1817.780 1081.384 C 1907.443 1041.532, 2001.053 1018.417, 2091.129 1013.886 C 2133.508 1011.755, 2181.685 1016.207, 2206.280 1024.528 C 2226.125 1031.242, 2242.536 1047.483, 2248.942 1066.747 C 2256.660 1089.957, 2252.006 1111.953, 2233.257 1140.880 C 2226.243 1151.701, 2219.017 1166.893, 2215.493 1178.226 C 2212.073 1189.223, 2212.231 1198.810, 2215.958 1206.451 C 2219.224 1213.147, 2232.477 1226.186, 2243.514 1233.562 C 2293.023 1266.648, 2378.018 1285.838, 2507.500 1293.165 C 2533.079 1294.612, 2633.110 1294.911, 2665.340 1293.636 L 2687.180 1292.772 2686.503 1289.136 C 2686.131 1287.136, 2682.896 1275.825, 2679.315 1264 C 2672.341 1240.975, 2671.797 1236.161, 2675.387 1229.219 C 2677.366 1225.391, 2682.362 1220.381, 2686.156 1218.419 C 2687.891 1217.522, 2937.104 1176.857, 3292.800 1119.431 C 3624.835 1065.825, 3898.525 1021.236, 3901 1020.344 C 3907.178 1018.117, 3914.262 1010.709, 3915.938 1004.722 C 3917.950 997.537, 3916.948 989.069, 3913.406 983.327 C 3909.942 977.712, 3901.951 972.398, 3895.612 971.495 C 3892.688 971.079, 3713.502 999.687, 3275.500 1070.500 C 2697.109 1164.011, 2659.178 1170.023, 2654.227 1168.969 C 2644.616 1166.923, 2641.588 1163.595, 2632 1144.537 C 2624.067 1128.768, 2623.503 1127.237, 2623.545 1121.571 C 2623.600 1114.240, 2626.239 1108.591, 2631.788 1103.933 C 2634.565 1101.602, 2808.426 1027.189, 3269.553 830.970 C 3618.224 682.603, 3905.184 560.013, 3907.243 558.546 C 3913.072 554.395, 3916.233 548.113, 3916.753 539.644 C 3917.147 533.235, 3916.895 531.936, 3914.303 527.018 C 3909.257 517.442, 3900.015 512.305, 3889.508 513.236 C 3885.667 513.576, 3735.094 577.272, 3243.500 786.513 C 2695.655 1019.697, 2601.665 1059.412, 2596.755 1059.793 C 2591.973 1060.165, 2590.083 1059.786, 2585.479 1057.533 C 2582.436 1056.045, 2578.841 1053.404, 2577.488 1051.664 C 2567.257 1038.502, 2551.029 1015.523, 2550.115 1012.900 C 2547.252 1004.687, 2549.828 993.295, 2555.790 987.799 C 2557.281 986.426, 2862.250 774.125, 3233.500 516.020 C 3604.750 257.915, 3909.557 45.785, 3910.849 44.619 C 3912.141 43.454, 3914.307 40.322, 3915.661 37.660 C 3918.654 31.780, 3918.994 22.525, 3916.451 16.169 C 3914.242 10.649, 3906.384 3.647, 3900.570 2.020 C 3895.194 0.514, 3886.646 1.032, 3882.468 3.116 C 3880.826 3.936, 3573.503 217.387, 3199.528 477.453 C 2825.554 737.519, 2517.567 951.188, 2515.114 952.274 C 2509.343 954.826, 2500.683 954.209, 2495.052 950.844 C 2489.255 947.379, 2463.315 921.521, 2460.779 916.679 C 2457.613 910.634, 2457.705 901.930, 2461 895.784 C 2462.767 892.488, 2587.588 766.425, 2886.500 466.051 C 3221.778 129.132, 3309.964 39.998, 3311.737 36.240 C 3318.259 22.420, 3310.290 4.858, 3295.708 0.917 C 3290.302 -0.544, 3282.322 0.285, 3277.344 2.825 C 3274.847 4.098, 3118.962 160.093, 2846.466 434.006 C 2583.042 698.799, 2418.037 863.942, 2415.682 865.151 C 2410.592 867.763, 2403.214 868.549, 2398.388 866.993 C 2394.033 865.589, 2355.682 840.453, 2352.365 836.828 C 2346.355 830.262, 2344.535 818.322, 2348.428 811 C 2349.452 809.075, 2453.997 633.869, 2580.751 421.653 C 2793.606 65.283, 2811.293 35.336, 2812.258 29.653 C 2816.472 4.866, 2786.486 -10.173, 2769.340 8.128 C 2767.603 9.982, 2661.937 186.100, 2534.528 399.500 C 2378.525 660.793, 2301.622 788.706, 2299.037 791.193 C 2294.425 795.632, 2285.739 798.542, 2280.166 797.516 C 2278.150 797.145, 2269.750 793.908, 2261.500 790.323 C 2253.250 786.737, 2242 782.011, 2236.500 779.819 C 2231 777.627, 2225.084 774.758, 2223.353 773.445 C 2218.846 770.023, 2215 761.782, 2215 755.546 C 2215 751.444, 2238.240 682.413, 2337.562 391.492 L 2460.125 32.500 2459.731 25 C 2459.296 16.712, 2457.747 12.900, 2452.801 7.955 C 2448.065 3.219, 2442.565 1.048, 2435.239 1.022 C 2427.351 0.994, 2421.330 3.682, 2416.185 9.527 C 2412.638 13.557, 2405.006 35.519, 2289.018 375.446 C 2180.654 693.034, 2165.221 737.550, 2162.310 740.951 C 2157.983 746.006, 2151.707 749, 2145.434 749.001 C 2140.870 749.002, 2114.779 743.783, 2102 740.314 C 2092.406 737.709, 2085.034 727.992, 2084.983 717.884 C 2084.973 716.023, 2101.004 559.618, 2120.607 370.318 C 2145.118 133.618, 2156.035 24.718, 2155.567 21.596 C 2154.643 15.439, 2149.571 8.217, 2143.578 4.529 C 2139.166 1.813, 2137.822 1.500, 2130.578 1.500 C 2123.577 1.500, 2121.880 1.865, 2117.848 4.235 C 2111.899 7.732, 2107.373 13.903, 2105.997 20.393 C 2105.401 23.202, 2088.955 179.785, 2069.451 368.357 C 2036.654 685.430, 2033.814 711.562, 2031.674 715.857 C 2028.996 721.229, 2022.642 726.481, 2016.971 728.008 C 2014.228 728.746, 2005.981 728.775, 1989.911 728.103 C 1968.021 727.186, 1966.513 726.997, 1961.449 724.519 C 1955.118 721.421, 1950.621 715.836, 1949.082 709.159 C 1948.492 706.597, 1928.423 550.600, 1904.485 362.500 C 1880.547 174.400, 1860.506 19.103, 1859.951 17.395 C 1859.395 15.688, 1857.331 12.410, 1855.363 10.111 C 1839.958 -7.886, 1811.049 2.712, 1811.010 26.371 C 1811.004 29.601, 1830.374 184.176, 1854.053 369.871 C 1880.946 580.769, 1896.889 708.942, 1896.527 711.342 C 1895.197 720.154, 1887.729 728.804, 1879.708 730.823 C 1877.394 731.405, 1864.833 733.336, 1851.797 735.113 C 1831.859 737.831, 1827.476 738.159, 1824.206 737.180 C 1819.130 735.659, 1814.348 732.348, 1810.949 728 C 1808.964 725.461, 1773.866 627.054, 1683.108 369.565 C 1614.301 174.350, 1556.990 13.130, 1555.752 11.298 C 1550.935 4.173, 1540.147 -0.530, 1531.378 0.672 C 1524.837 1.568, 1517.122 6.608, 1513.635 12.261 C 1511.300 16.048, 1510.604 18.505, 1510.239 24.261 L 1509.781 31.500 1633.055 381 C 1713.611 609.387, 1756.483 732.254, 1756.773 735.563 C 1757.102 739.324, 1756.644 741.957, 1754.989 745.804 C 1750.998 755.081, 1748.397 756.598, 1720.723 765.785 C 1703.604 771.468, 1694.515 773.997, 1691.238 773.990 C 1685.817 773.979, 1677.627 770.527, 1674.373 766.882 C 1673.203 765.572, 1569.110 595.525, 1443.055 389 C 1317 182.475, 1212.645 11.972, 1211.157 10.105 C 1209.668 8.238, 1206.020 5.338, 1203.049 3.660 C 1190.686 -3.325, 1174.998 1.471, 1168.356 14.266 C 1167.433 16.045, 1166.485 20.650, 1166.250 24.500 C 1165.871 30.718, 1166.142 32.114, 1168.683 37 C 1170.256 40.025, 1272.814 208.325, 1396.590 411 C 1520.366 613.675, 1622.169 781.030, 1622.818 782.899 C 1624.325 787.233, 1624.325 793.183, 1622.819 798.209 C 1620.803 804.937, 1615.644 809.375, 1600 817.834 C 1592.025 822.147, 1581.271 828.087, 1576.102 831.035 C 1564.556 837.618, 1558.475 838.550, 1550.224 835.001 C 1545.708 833.058, 1494.926 782.328, 1134.442 419.644 C 865.539 149.099, 722.199 5.571, 719.153 3.808 C 714.093 0.880, 706.398 -0.371, 701.332 0.912 M 2072.500 1096.583 C 2047.163 1098.467, 2037.037 1099.451, 2021.500 1101.541 C 1931.724 1113.616, 1836.548 1146.967, 1749 1197.030 C 1724.976 1210.768, 1698.210 1224.831, 1674.500 1236.173 C 1568.196 1287.027, 1440.899 1325.108, 1306 1346.409 C 1189.694 1364.774, 1069.528 1368.877, 996.159 1356.990 C 950.271 1349.555, 917.211 1335.347, 896.925 1314.343 C 886.860 1303.922, 882.185 1296.760, 872.918 1277.564 C 864.818 1260.784, 860.536 1253.951, 855.500 1249.772 C 846.556 1242.347, 834.266 1240.413, 815.500 1243.478 C 801.321 1245.793, 793.143 1248.199, 750.500 1262.603 C 644.479 1298.416, 549.548 1324.402, 422 1352.525 C 302.471 1378.879, 139.482 1407.264, 29 1420.966 C 19.925 1422.091, 10.813 1423.274, 8.750 1423.594 L 5 1424.176 5 1443.088 L 5 1462 1960.500 1462 L 3916 1462 3916 1443.117 C 3916 1424.387, 3915.982 1424.228, 3913.750 1423.605 C 3863.029 1409.440, 3799.268 1399.089, 3722.500 1392.559 C 3678.282 1388.797, 3637.547 1386.470, 3546.500 1382.505 C 3483.251 1379.750, 3463.200 1378.679, 3433 1376.440 C 3347.758 1370.120, 3302.984 1359.211, 3283.920 1340.117 C 3275.599 1331.781, 3273.526 1326.430, 3274.238 1315.127 C 3274.813 1306.002, 3277.960 1297.648, 3285.062 1286.402 C 3288.033 1281.697, 3290 1277.432, 3290 1275.695 C 3290 1265.102, 3271.525 1255.050, 3248 1252.844 C 3232.407 1251.381, 3182.959 1252.362, 3168 1254.431 C 3122.794 1260.681, 3089.835 1270.635, 3014.500 1300.786 C 2916.631 1339.956, 2853.786 1357.367, 2768.500 1368.938 C 2670.903 1382.180, 2520.251 1383.445, 2414 1371.915 C 2295.078 1359.010, 2215.250 1330.974, 2166.773 1285.087 C 2152.010 1271.112, 2142.328 1255.815, 2137.817 1239.337 C 2136.077 1232.978, 2135.676 1228.764, 2135.690 1217 C 2135.706 1204.078, 2136.038 1201.248, 2138.743 1191 C 2143.618 1172.529, 2153.465 1151.103, 2165.729 1132.282 C 2175.547 1117.216, 2177.312 1109.776, 2172 1105.852 C 2168.849 1103.525, 2154.749 1100.432, 2138.244 1098.448 C 2126.180 1096.998, 2083.285 1095.782, 2072.500 1096.583 M 5 1868 L 5 2150 55 2150 L 105 2150 105 2032.500 L 105 1915 221 1915 L 337 1915 337 1871 L 337 1827 221 1827 L 105 1827 105 1751 L 105 1675 243 1675 L 381 1675 381 1630.500 L 381 1586 193 1586 L 5 1586 5 1868 M 631.890 1588.750 C 618.043 1624.640, 420 2148.265, 420 2148.986 C 420 2149.686, 436.148 2149.935, 470.102 2149.759 L 520.204 2149.500 544 2085.500 L 567.796 2021.500 689.045 2021.500 L 810.294 2021.500 834.504 2085.500 L 858.713 2149.500 909.967 2149.759 C 950.839 2149.966, 961.124 2149.763, 960.744 2148.759 C 960.481 2148.067, 912.411 2021.162, 853.921 1866.750 L 747.576 1586 690.263 1586 L 632.950 1586 631.890 1588.750 M 1099 1868 L 1099 2150 1150 2150 L 1201 2150 1201 2027 L 1201 1904 1335.500 1904 L 1470 1904 1470 2027 L 1470 2150 1520.500 2150 L 1571 2150 1571 1868 L 1571 1586 1520.500 1586 L 1470 1586 1470 1700.500 L 1470 1815 1335.500 1815 L 1201 1815 1201 1700.500 L 1201 1586 1150 1586 L 1099 1586 1099 1868 M 1755 1868 L 1755 2150 1946 2150 L 2137 2150 2137 2105.500 L 2137 2061 1996 2061 L 1855 2061 1855 1982.500 L 1855 1904 1973.500 1904 L 2092 1904 2092 1859.500 L 2092 1815 1973.500 1815 L 1855 1815 1855 1745 L 1855 1675 1996 1675 L 2137 1675 2137 1630.500 L 2137 1586 1946 1586 L 1755 1586 1755 1868 M 2299 1868 L 2299 2150 2350 2150 L 2401 2150 2401 2040.990 L 2401 1931.980 2446.091 1932.240 L 2491.182 1932.500 2559.495 2041 L 2627.809 2149.500 2685.515 2149.758 C 2733.856 2149.974, 2743.135 2149.795, 2742.698 2148.655 C 2742.411 2147.907, 2710.181 2097.487, 2671.076 2036.611 C 2631.971 1975.735, 2599.869 1925.466, 2599.738 1924.902 C 2599.607 1924.338, 2604.675 1922.299, 2611 1920.371 C 2642.896 1910.647, 2666.343 1896.817, 2686.716 1875.709 C 2714.898 1846.510, 2729 1807.586, 2729 1759 C 2729 1710.335, 2715.246 1671.465, 2687.746 1642.413 C 2657.618 1610.585, 2613.954 1592.232, 2556 1587.038 C 2548.867 1586.398, 2497.888 1586.006, 2421.750 1586.003 L 2299 1586 2299 1868 M 2840.240 1630.250 L 2840.500 1674.500 2930.750 1674.755 L 3021 1675.011 3021 1912.505 L 3021 2150 3072 2150 L 3123 2150 3123 1912.500 L 3123 1675 3213.500 1675 L 3304 1675 3304 1630.500 L 3304 1586 3071.990 1586 L 2839.979 1586 2840.240 1630.250 M 3409.164 1586.823 C 3409.349 1587.285, 3455.287 1661.952, 3511.250 1752.749 L 3613 1917.835 3613 2033.917 L 3613 2150 3663.500 2150 L 3714 2150 3714.017 2033.750 L 3714.033 1917.500 3815.517 1752.182 C 3871.332 1661.257, 3917 1586.669, 3917 1586.432 C 3917 1586.194, 3892.813 1586.005, 3863.250 1586.012 L 3809.500 1586.024 3737.005 1704.967 C 3697.133 1770.386, 3664.176 1823.576, 3663.768 1823.168 C 3663.359 1822.759, 3630.657 1769.342, 3591.096 1704.463 L 3519.167 1586.500 3463.997 1586.241 C 3433.654 1586.099, 3408.979 1586.361, 3409.164 1586.823 M 2401 1759.032 L 2401 1845.194 2469.750 1844.733 C 2527.990 1844.342, 2540.078 1844.013, 2548.822 1842.583 C 2602.249 1833.839, 2629 1805.786, 2629 1758.500 C 2629 1712.434, 2604.207 1685.670, 2552 1675.380 C 2544.671 1673.935, 2533.684 1673.647, 2472.250 1673.287 L 2401 1672.869 2401 1759.032 M 687.251 1702 C 679.543 1721.518, 601.852 1931.185, 602.199 1931.532 C 602.462 1931.796, 641.800 1931.896, 689.615 1931.756 L 776.553 1931.500 732.814 1816.500 C 708.758 1753.250, 688.887 1701.050, 688.657 1700.500 C 688.427 1699.950, 687.794 1700.625, 687.251 1702" stroke="none" fill="#b84c34" fill-rule="evenodd"/><path d="" stroke="none" fill="#b44c34" fill-rule="evenodd"/></svg>