<svg xmlns="http://www.w3.org/2000/svg" width="4167" height="2500" viewBox="0 0 4167 2500" version="1.1"><path d="M 1536.352 471.953 C 1497.898 476.387, 1464.267 492.624, 1436.945 519.945 C 1413.651 543.240, 1398.133 571.639, 1391.560 603 C 1384.185 638.195, 1389.102 677.024, 1405.062 709.606 C 1427.551 755.518, 1469.070 787.701, 1520.686 799.232 C 1529.207 801.136, 1533.529 801.427, 1553.500 801.446 C 1573.813 801.465, 1577.727 801.199, 1587 799.174 C 1620.534 791.849, 1646.441 777.715, 1670.578 753.578 C 1694.715 729.441, 1708.849 703.534, 1716.174 670 C 1718.199 660.727, 1718.465 656.813, 1718.446 636.500 C 1718.427 616.529, 1718.136 612.207, 1716.232 603.686 C 1701.020 535.590, 1649.149 485.307, 1582 473.563 C 1570.919 471.625, 1546.628 470.768, 1536.352 471.953 M 246 1282 L 246 2007 384 2007 L 522 2007 522 1677.629 L 522 1348.258 539.040 1328.629 C 548.411 1317.833, 556.399 1309.002, 556.790 1309.003 C 557.180 1309.005, 657.108 1466.055, 778.852 1658.003 L 1000.204 2007 1162.201 2007 L 1324.198 2007 1322.250 2003.750 C 1321.179 2001.963, 1191.042 1795.982, 1033.057 1546.016 C 780.953 1147.134, 745.957 1091.299, 746.999 1089.630 C 747.652 1088.584, 851.532 968.709, 977.843 823.243 C 1104.155 677.776, 1207.650 558.362, 1207.833 557.879 C 1208.021 557.384, 1192.441 557, 1172.176 557 L 1136.186 557 829.343 910.418 L 522.500 1263.836 522.249 910.418 L 521.997 557 383.999 557 L 246 557 246 1282 M 2087 628.323 L 1950.500 699.506 1950.249 1353.253 L 1949.998 2007 2087.499 2007 L 2225 2007 2225 1282 C 2225 883.250, 2224.662 557.032, 2224.250 557.070 C 2223.838 557.109, 2162.075 589.173, 2087 628.323 M 2658.250 628.681 L 2521 700.239 2521 853.119 L 2521 1006 2424.500 1006 L 2328 1006 2328 1033 L 2328 1060 2424.500 1060 L 2521 1060 2521 1533.500 L 2521 2007 2659 2007 L 2797 2007 2797 1533.500 L 2797 1060 2898.500 1060 L 3000 1060 3000 1033 L 3000 1006 2898.500 1006 L 2797 1006 2797 781.500 C 2797 658.025, 2796.662 557.028, 2796.250 557.061 C 2795.838 557.095, 2733.738 589.324, 2658.250 628.681 M 1552.762 1077.281 L 1416.025 1148.500 1416.012 1576.250 L 1416 2004 1553.500 2004 L 1691 2004 1691 1505 C 1691 1230.550, 1690.662 1006.014, 1690.250 1006.031 C 1689.838 1006.047, 1627.968 1038.110, 1552.762 1077.281 M 3468.500 1006.603 C 3466.300 1006.810, 3458.650 1007.465, 3451.500 1008.059 C 3404.888 1011.935, 3355.348 1022.863, 3312.551 1038.709 C 3147.486 1099.825, 3040.283 1238.694, 3013.573 1426 C 3009.053 1457.698, 3007.819 1474.858, 3007.272 1513.624 C 3006.279 1583.937, 3012.404 1637.733, 3028.037 1696 C 3065.263 1834.747, 3153.571 1940.402, 3275 1991.478 C 3351.163 2023.514, 3440.016 2035.487, 3527 2025.437 C 3646.759 2011.599, 3748.818 1954.049, 3833.102 1852.827 C 3846.095 1837.224, 3855.206 1825.037, 3890.433 1776.141 L 3920.231 1734.783 3913.392 1727.891 C 3909.631 1724.101, 3906.255 1721, 3905.890 1721 C 3905.525 1721, 3898.538 1726.033, 3890.363 1732.185 C 3836.574 1772.661, 3779.816 1800.381, 3720.980 1814.909 C 3688.156 1823.015, 3659.223 1826.781, 3623 1827.663 C 3568.799 1828.984, 3520.894 1821.797, 3475.494 1805.534 C 3459.751 1799.894, 3430.263 1785.509, 3416.213 1776.615 C 3336.065 1725.879, 3282.701 1639.473, 3259.582 1523 C 3252.198 1485.802, 3247.035 1437.857, 3247.010 1406.250 L 3247 1394 3564.892 1394 L 3882.783 1394 3883.382 1391.615 C 3883.711 1390.304, 3884.953 1382.091, 3886.142 1373.365 C 3888.969 1352.615, 3889.259 1309.640, 3886.709 1289.408 C 3879.327 1230.840, 3859.333 1181.473, 3824.983 1137 C 3815.446 1124.653, 3789.325 1098.498, 3776.102 1088.057 C 3727.853 1049.958, 3667.533 1024.455, 3598.659 1013.035 C 3566.191 1007.651, 3554.838 1006.795, 3512 1006.500 C 3490.275 1006.351, 3470.700 1006.397, 3468.500 1006.603 M 3415.500 1053.404 C 3361.412 1062.389, 3320.378 1095.282, 3290.902 1153.284 C 3269.205 1195.978, 3255.701 1248.531, 3249.498 1314.411 C 3248.674 1323.161, 3248 1332.274, 3248 1334.661 L 3248 1339 3446 1339 L 3644 1339 3644 1336.742 C 3644 1332.411, 3636.888 1293.367, 3632.948 1276.068 C 3608.681 1169.527, 3564.895 1097.528, 3506.223 1067.690 C 3494.250 1061.601, 3483.965 1057.839, 3471.130 1054.852 C 3459.907 1052.241, 3427.566 1051.399, 3415.500 1053.404" stroke="none" fill="#e83c34" fill-rule="evenodd"/><path d="" stroke="none" fill="#e43c34" fill-rule="evenodd"/></svg>