<svg xmlns="http://www.w3.org/2000/svg" width="900" height="449" viewBox="0 0 900 449" version="1.1"><path d="M 449.750 77.756 L 375 78.013 375.019 131.756 C 375.041 191.238, 375.594 198.968, 380.783 212.290 C 393.209 244.194, 426.533 264.444, 459.242 259.967 C 481.008 256.989, 500.614 244.673, 512.522 226.500 C 517.435 219.002, 522.613 205.408, 523.994 196.380 C 524.663 192.008, 524.947 169.087, 524.773 133.500 L 524.500 77.500 449.750 77.756 M 388.667 90.667 C 388.300 91.033, 388 103.389, 388 118.123 L 388 144.912 409.008 162.530 L 430.016 180.149 417.758 193.678 C 411.016 201.120, 403.560 209.403, 401.189 212.085 L 396.878 216.962 399.852 221.286 C 404.839 228.533, 415.037 237.286, 423.187 241.313 C 441.155 250.191, 459.329 250.050, 477.914 240.888 C 492.071 233.910, 502.751 221.451, 508.821 204.835 L 511.500 197.500 511.791 143.750 L 512.082 90 450.708 90 C 416.952 90, 389.033 90.300, 388.667 90.667 M 417.215 110.015 C 411.807 113.626, 404.277 121.797, 398.101 130.755 L 395.857 134.009 398.679 136.383 C 418.984 153.469, 434.889 166.326, 436.500 166.957 C 437.600 167.387, 439.400 167.409, 440.500 167.006 C 441.600 166.602, 450.023 157.998, 459.217 147.886 L 475.934 129.500 475.967 123.718 C 476.008 116.567, 474.279 112.256, 469.886 108.551 L 466.500 105.696 465.932 112.598 C 465.273 120.617, 463.851 123.646, 457.530 130.500 L 452.919 135.500 453.564 120.750 L 454.208 106 438.718 106 L 423.228 106 417.215 110.015 M 487 132.465 C 487 133.821, 488.415 136.542, 490.145 138.512 C 493.252 142.051, 493.282 142.188, 492.678 150.021 C 491.989 158.961, 489.476 164.984, 485.289 167.735 C 483.236 169.084, 479.764 169.618, 470.552 170 L 458.500 170.500 458.663 173.890 C 458.867 178.158, 462.442 181.875, 467.054 182.615 C 469.687 183.037, 471.358 182.583, 474.137 180.691 C 476.137 179.329, 479.589 177.907, 481.809 177.532 C 491.713 175.859, 498.039 168.509, 500.028 156.364 C 501.405 147.957, 501.266 132.666, 499.800 131.200 C 499.140 130.540, 495.990 130, 492.800 130 C 487.302 130, 487 130.128, 487 132.465 M 470.088 146.394 C 469.193 147.473, 469.311 148.168, 470.608 149.465 C 472.096 150.953, 472.454 150.974, 473.780 149.649 C 475.481 147.948, 474.767 145, 472.654 145 C 471.879 145, 470.724 145.627, 470.088 146.394 M 480.701 145.632 C 480.316 146.018, 480 147.158, 480 148.167 C 480 149.469, 480.745 150, 482.570 150 C 484.659 150, 485.079 149.582, 484.820 147.760 C 484.503 145.543, 482.055 144.278, 480.701 145.632 M 475.364 155.493 C 475.018 156.396, 475.214 157.614, 475.800 158.200 C 477.324 159.724, 480.210 158.331, 479.812 156.265 C 479.369 153.963, 476.165 153.407, 475.364 155.493 M 447 186.955 C 432.220 189.885, 423.737 204.378, 428.161 219.142 C 429.668 224.174, 435.134 230.499, 440.357 233.255 C 446.101 236.285, 456.861 236.313, 462.500 233.312 C 476.997 225.597, 480.401 207.084, 469.661 194.363 C 464.928 188.758, 454.728 185.423, 447 186.955 M 447 203 L 447 207 443 207 L 439 207 439 211.500 L 439 216 443 216 L 447 216 447 220 L 447 224 451.500 224 L 456 224 456 220 L 456 216 460 216 L 464 216 464 211.500 L 464 207 460 207 L 456 207 456 203 L 456 199 451.500 199 L 447 199 447 203 M 101.056 303.595 C 88.150 307.064, 81.321 318.155, 85.166 329.403 C 87.984 337.648, 95.903 340.988, 117.500 343.041 C 131.319 344.355, 135.658 345.790, 136.549 349.341 C 138.117 355.586, 132.231 359, 119.898 359 C 107.795 359, 101.967 356.692, 98.429 350.497 C 97.393 348.681, 97.156 348.696, 90.929 350.966 C 87.393 352.256, 84.124 353.639, 83.665 354.040 C 81.201 356.194, 89.863 365.684, 97.500 369.199 C 102.069 371.301, 103.881 371.497, 118.500 371.470 C 135.806 371.437, 138.494 370.821, 144.915 365.418 C 149.693 361.397, 151.364 357.405, 151.389 349.944 C 151.435 336.655, 144.501 332.446, 118.500 329.978 C 101.273 328.342, 97.409 326.256, 100.002 319.995 C 101.677 315.952, 106.048 314.481, 116 314.612 C 125.620 314.738, 130.970 316.499, 133.510 320.375 L 135.175 322.917 141.783 320.430 C 145.417 319.062, 148.579 317.754, 148.809 317.524 C 149.880 316.453, 144.390 309.727, 140.663 307.543 C 131.522 302.187, 113.118 300.353, 101.056 303.595 M 158.681 303.652 C 158.306 304.027, 158 306.958, 158 310.167 L 158 316 169.484 316 L 180.968 316 181.234 343.250 L 181.500 370.500 189 370.500 L 196.500 370.500 196.671 343.500 L 196.842 316.500 208.968 316.219 L 221.094 315.938 220.797 309.719 L 220.500 303.500 189.931 303.236 C 173.118 303.091, 159.055 303.278, 158.681 303.652 M 257 337.133 L 257 371.266 280.750 370.690 C 293.813 370.374, 306.619 369.607, 309.209 368.985 C 314.618 367.688, 319.443 364.679, 322.298 360.824 C 324.971 357.215, 325.632 349.448, 323.666 344.743 C 322.101 340.997, 316.994 337.011, 313.750 337.004 C 310.830 336.998, 311.785 335.479, 315.569 334.111 C 320.448 332.347, 322.992 327.898, 322.996 321.118 C 323.006 306.687, 313.253 303.026, 274.750 303.008 L 257 303 257 337.133 M 341.460 304.243 C 341.191 304.943, 341.091 320.138, 341.236 338.008 L 341.500 370.500 372.250 370.764 L 403 371.029 403 364.014 L 403 357 379.500 357 L 356 357 356 350 L 356 343 375 343 L 394 343 394 336.435 L 394 329.871 374.999 330.185 L 355.998 330.500 355.999 323.250 L 356 316 378.756 316 L 401.511 316 401.506 309.750 L 401.500 303.500 371.724 303.235 C 348.344 303.027, 341.844 303.244, 341.460 304.243 M 419.504 304.130 C 419.211 304.892, 419.091 320.138, 419.236 338.008 L 419.500 370.500 426.750 370.794 L 434 371.088 434 359.544 L 434 348 444.033 348 L 454.065 348 461.564 359.500 L 469.062 371 477.138 371 C 486.721 371, 486.708 371.980, 477.319 357.253 C 473.699 351.575, 470.909 346.777, 471.119 346.592 C 471.328 346.406, 472.939 345.523, 474.698 344.628 C 476.457 343.734, 479.157 341.350, 480.698 339.330 C 483.152 336.114, 483.544 334.619, 483.854 327.288 C 484.265 317.587, 483.216 314.275, 478.391 310.038 C 472.526 304.889, 466.928 303.839, 442.268 303.262 C 423.885 302.833, 419.944 302.983, 419.504 304.130 M 502 337.044 L 502 371.088 509.074 370.794 L 516.148 370.500 516.094 347 L 516.040 323.500 519.627 327.500 C 521.600 329.700, 527.576 336.688, 532.908 343.029 C 538.240 349.370, 545.730 358.256, 549.551 362.776 L 556.500 370.995 563.250 370.997 L 570 371 570 336.954 L 570 302.909 563.250 303.204 L 556.500 303.500 556 326.432 L 555.500 349.363 548 340.400 C 543.875 335.471, 535.139 325.039, 528.588 317.219 L 516.675 303 509.338 303 L 502 303 502 337.044 M 609.557 305.223 C 608.701 306.445, 608 307.737, 608 308.094 C 608 308.450, 604.457 316.113, 600.126 325.121 C 583.875 358.924, 580.262 366.598, 579.560 368.812 C 578.846 371.061, 578.927 371.084, 586.564 370.794 C 592.161 370.581, 594.521 370.087, 595.129 369 C 595.591 368.175, 597.154 364.913, 598.602 361.750 L 601.234 356 618.643 356 L 636.051 356 639.661 363.500 L 643.271 371 651.171 371 C 658.383 371, 658.989 370.848, 658.136 369.250 C 657.622 368.288, 655.853 364.575, 654.204 361 C 652.555 357.425, 645.558 342.913, 638.655 328.750 L 626.104 303 618.609 303 C 611.997 303, 610.930 303.262, 609.557 305.223 M 668 336.915 L 668 371.088 675.250 370.794 L 682.500 370.500 682.783 359.250 L 683.066 348 692.922 348 L 702.778 348 710 359.500 L 717.222 371 725.670 371 C 732.144 371, 733.951 370.708, 733.402 369.750 C 733.008 369.063, 729.832 363.912, 726.343 358.304 C 722.854 352.696, 720.012 347.746, 720.027 347.304 C 720.042 346.862, 721.737 345.463, 723.795 344.196 C 725.852 342.928, 728.653 340.261, 730.018 338.269 C 732.188 335.101, 732.499 333.570, 732.491 326.073 C 732.481 316.041, 730.928 312.295, 725.222 308.545 C 719.360 304.692, 714.029 303.892, 690.250 303.298 L 668 302.742 668 336.915 M 749 337.134 L 749 371.267 769.750 370.746 C 795.816 370.091, 801.485 368.651, 809.457 360.663 C 813.565 356.545, 814.951 354.272, 816.304 349.434 C 818.566 341.344, 818.444 332.648, 815.955 324.588 C 810.858 308.087, 798.562 303, 763.776 303 L 749 303 749 337.134 M 271.780 315.632 C 271.514 316.109, 271.507 319.538, 271.765 323.250 L 272.233 330 286.467 330 C 294.296 330, 302.057 329.528, 303.713 328.950 C 309.401 326.967, 310.050 319.734, 304.798 316.868 C 302.102 315.396, 272.528 314.290, 271.780 315.632 M 434 325.500 L 434 335 447.351 335 C 454.694 335, 462.057 334.528, 463.713 333.950 C 468.771 332.187, 470.757 324.390, 467.250 320.061 C 464.821 317.064, 459.433 316.052, 445.750 316.024 L 434 316 434 325.500 M 683 325.387 L 683 335 696.750 334.996 C 708.693 334.993, 710.927 334.732, 713.750 333.011 C 716.690 331.219, 716.999 330.574, 716.985 326.265 C 716.957 317.768, 714.845 316.715, 696.750 316.180 L 683 315.773 683 325.387 M 764 336.347 L 764 357 776.288 357 C 787.060 357, 789.120 356.722, 792.980 354.750 C 799.113 351.616, 801.282 348.247, 801.803 341.043 C 802.485 331.623, 801.338 326.500, 797.678 322.620 C 793.633 318.331, 789.308 317.117, 775.250 316.327 L 764 315.694 764 336.347 M 616.746 321.015 C 615.933 322.932, 613.408 328.609, 611.134 333.632 C 608.860 338.655, 607 343.042, 607 343.382 C 607 343.722, 612.175 344, 618.500 344 C 624.825 344, 630 343.750, 630 343.445 C 630 342.852, 628.492 339.485, 622.192 326.015 L 618.223 317.529 616.746 321.015 M 271.955 342.147 C 271.930 342.341, 271.846 345.875, 271.769 350 L 271.627 357.500 287.611 357.500 C 306.569 357.500, 309 356.663, 309 350.132 C 309 343.217, 307.287 342.554, 288.396 342.147 C 279.378 341.953, 271.980 341.953, 271.955 342.147 M 218 353.709 C 214.282 355.076, 213 357.313, 213.015 362.405 C 213.033 368.399, 213.599 369.517, 217.335 370.937 C 227.565 374.827, 236.145 366.997, 231.890 357.657 C 230.115 353.762, 223.201 351.797, 218 353.709" stroke="none" fill="#cd2028" fill-rule="evenodd"/><path d="M 0 224.501 L 0 449.002 450.250 448.751 L 900.500 448.500 900.752 224.250 L 901.004 0 450.502 0 L 0 0 0 224.501 M 0.491 225 C 0.491 348.475, 0.608 398.987, 0.750 337.250 C 0.892 275.512, 0.892 174.487, 0.750 112.750 C 0.608 51.012, 0.491 101.525, 0.491 225 M 449.750 77.756 L 375 78.013 375.019 131.756 C 375.041 191.238, 375.594 198.968, 380.783 212.290 C 393.209 244.194, 426.533 264.444, 459.242 259.967 C 481.008 256.989, 500.614 244.673, 512.522 226.500 C 517.435 219.002, 522.613 205.408, 523.994 196.380 C 524.663 192.008, 524.947 169.087, 524.773 133.500 L 524.500 77.500 449.750 77.756 M 388.667 90.667 C 388.300 91.033, 388 103.389, 388 118.123 L 388 144.912 409.008 162.530 L 430.016 180.149 417.758 193.678 C 411.016 201.120, 403.560 209.403, 401.189 212.085 L 396.878 216.962 399.852 221.286 C 404.839 228.533, 415.037 237.286, 423.187 241.313 C 441.155 250.191, 459.329 250.050, 477.914 240.888 C 492.071 233.910, 502.751 221.451, 508.821 204.835 L 511.500 197.500 511.791 143.750 L 512.082 90 450.708 90 C 416.952 90, 389.033 90.300, 388.667 90.667 M 417.215 110.015 C 411.807 113.626, 404.277 121.797, 398.101 130.755 L 395.857 134.009 398.679 136.383 C 418.984 153.469, 434.889 166.326, 436.500 166.957 C 437.600 167.387, 439.400 167.409, 440.500 167.006 C 441.600 166.602, 450.023 157.998, 459.217 147.886 L 475.934 129.500 475.967 123.718 C 476.008 116.567, 474.279 112.256, 469.886 108.551 L 466.500 105.696 465.932 112.598 C 465.273 120.617, 463.851 123.646, 457.530 130.500 L 452.919 135.500 453.564 120.750 L 454.208 106 438.718 106 L 423.228 106 417.215 110.015 M 487 132.465 C 487 133.821, 488.415 136.542, 490.145 138.512 C 493.252 142.051, 493.282 142.188, 492.678 150.021 C 491.989 158.961, 489.476 164.984, 485.289 167.735 C 483.236 169.084, 479.764 169.618, 470.552 170 L 458.500 170.500 458.663 173.890 C 458.867 178.158, 462.442 181.875, 467.054 182.615 C 469.687 183.037, 471.358 182.583, 474.137 180.691 C 476.137 179.329, 479.589 177.907, 481.809 177.532 C 491.713 175.859, 498.039 168.509, 500.028 156.364 C 501.405 147.957, 501.266 132.666, 499.800 131.200 C 499.140 130.540, 495.990 130, 492.800 130 C 487.302 130, 487 130.128, 487 132.465 M 470.088 146.394 C 469.193 147.473, 469.311 148.168, 470.608 149.465 C 472.096 150.953, 472.454 150.974, 473.780 149.649 C 475.481 147.948, 474.767 145, 472.654 145 C 471.879 145, 470.724 145.627, 470.088 146.394 M 480.701 145.632 C 480.316 146.018, 480 147.158, 480 148.167 C 480 149.469, 480.745 150, 482.570 150 C 484.659 150, 485.079 149.582, 484.820 147.760 C 484.503 145.543, 482.055 144.278, 480.701 145.632 M 475.364 155.493 C 475.018 156.396, 475.214 157.614, 475.800 158.200 C 477.324 159.724, 480.210 158.331, 479.812 156.265 C 479.369 153.963, 476.165 153.407, 475.364 155.493 M 447 186.955 C 432.220 189.885, 423.737 204.378, 428.161 219.142 C 429.668 224.174, 435.134 230.499, 440.357 233.255 C 446.101 236.285, 456.861 236.313, 462.500 233.312 C 476.997 225.597, 480.401 207.084, 469.661 194.363 C 464.928 188.758, 454.728 185.423, 447 186.955 M 447 203 L 447 207 443 207 L 439 207 439 211.500 L 439 216 443 216 L 447 216 447 220 L 447 224 451.500 224 L 456 224 456 220 L 456 216 460 216 L 464 216 464 211.500 L 464 207 460 207 L 456 207 456 203 L 456 199 451.500 199 L 447 199 447 203 M 101.056 303.595 C 88.150 307.064, 81.321 318.155, 85.166 329.403 C 87.984 337.648, 95.903 340.988, 117.500 343.041 C 131.319 344.355, 135.658 345.790, 136.549 349.341 C 138.117 355.586, 132.231 359, 119.898 359 C 107.795 359, 101.967 356.692, 98.429 350.497 C 97.393 348.681, 97.156 348.696, 90.929 350.966 C 87.393 352.256, 84.124 353.639, 83.665 354.040 C 81.201 356.194, 89.863 365.684, 97.500 369.199 C 102.069 371.301, 103.881 371.497, 118.500 371.470 C 135.806 371.437, 138.494 370.821, 144.915 365.418 C 149.693 361.397, 151.364 357.405, 151.389 349.944 C 151.435 336.655, 144.501 332.446, 118.500 329.978 C 101.273 328.342, 97.409 326.256, 100.002 319.995 C 101.677 315.952, 106.048 314.481, 116 314.612 C 125.620 314.738, 130.970 316.499, 133.510 320.375 L 135.175 322.917 141.783 320.430 C 145.417 319.062, 148.579 317.754, 148.809 317.524 C 149.880 316.453, 144.390 309.727, 140.663 307.543 C 131.522 302.187, 113.118 300.353, 101.056 303.595 M 158.681 303.652 C 158.306 304.027, 158 306.958, 158 310.167 L 158 316 169.484 316 L 180.968 316 181.234 343.250 L 181.500 370.500 189 370.500 L 196.500 370.500 196.671 343.500 L 196.842 316.500 208.968 316.219 L 221.094 315.938 220.797 309.719 L 220.500 303.500 189.931 303.236 C 173.118 303.091, 159.055 303.278, 158.681 303.652 M 257 337.133 L 257 371.266 280.750 370.690 C 293.813 370.374, 306.619 369.607, 309.209 368.985 C 314.618 367.688, 319.443 364.679, 322.298 360.824 C 324.971 357.215, 325.632 349.448, 323.666 344.743 C 322.101 340.997, 316.994 337.011, 313.750 337.004 C 310.830 336.998, 311.785 335.479, 315.569 334.111 C 320.448 332.347, 322.992 327.898, 322.996 321.118 C 323.006 306.687, 313.253 303.026, 274.750 303.008 L 257 303 257 337.133 M 341.460 304.243 C 341.191 304.943, 341.091 320.138, 341.236 338.008 L 341.500 370.500 372.250 370.764 L 403 371.029 403 364.014 L 403 357 379.500 357 L 356 357 356 350 L 356 343 375 343 L 394 343 394 336.435 L 394 329.871 374.999 330.185 L 355.998 330.500 355.999 323.250 L 356 316 378.756 316 L 401.511 316 401.506 309.750 L 401.500 303.500 371.724 303.235 C 348.344 303.027, 341.844 303.244, 341.460 304.243 M 419.504 304.130 C 419.211 304.892, 419.091 320.138, 419.236 338.008 L 419.500 370.500 426.750 370.794 L 434 371.088 434 359.544 L 434 348 444.033 348 L 454.065 348 461.564 359.500 L 469.062 371 477.138 371 C 486.721 371, 486.708 371.980, 477.319 357.253 C 473.699 351.575, 470.909 346.777, 471.119 346.592 C 471.328 346.406, 472.939 345.523, 474.698 344.628 C 476.457 343.734, 479.157 341.350, 480.698 339.330 C 483.152 336.114, 483.544 334.619, 483.854 327.288 C 484.265 317.587, 483.216 314.275, 478.391 310.038 C 472.526 304.889, 466.928 303.839, 442.268 303.262 C 423.885 302.833, 419.944 302.983, 419.504 304.130 M 502 337.044 L 502 371.088 509.074 370.794 L 516.148 370.500 516.094 347 L 516.040 323.500 519.627 327.500 C 521.600 329.700, 527.576 336.688, 532.908 343.029 C 538.240 349.370, 545.730 358.256, 549.551 362.776 L 556.500 370.995 563.250 370.997 L 570 371 570 336.954 L 570 302.909 563.250 303.204 L 556.500 303.500 556 326.432 L 555.500 349.363 548 340.400 C 543.875 335.471, 535.139 325.039, 528.588 317.219 L 516.675 303 509.338 303 L 502 303 502 337.044 M 609.557 305.223 C 608.701 306.445, 608 307.737, 608 308.094 C 608 308.450, 604.457 316.113, 600.126 325.121 C 583.875 358.924, 580.262 366.598, 579.560 368.812 C 578.846 371.061, 578.927 371.084, 586.564 370.794 C 592.161 370.581, 594.521 370.087, 595.129 369 C 595.591 368.175, 597.154 364.913, 598.602 361.750 L 601.234 356 618.643 356 L 636.051 356 639.661 363.500 L 643.271 371 651.171 371 C 658.383 371, 658.989 370.848, 658.136 369.250 C 657.622 368.288, 655.853 364.575, 654.204 361 C 652.555 357.425, 645.558 342.913, 638.655 328.750 L 626.104 303 618.609 303 C 611.997 303, 610.930 303.262, 609.557 305.223 M 668 336.915 L 668 371.088 675.250 370.794 L 682.500 370.500 682.783 359.250 L 683.066 348 692.922 348 L 702.778 348 710 359.500 L 717.222 371 725.670 371 C 732.144 371, 733.951 370.708, 733.402 369.750 C 733.008 369.063, 729.832 363.912, 726.343 358.304 C 722.854 352.696, 720.012 347.746, 720.027 347.304 C 720.042 346.862, 721.737 345.463, 723.795 344.196 C 725.852 342.928, 728.653 340.261, 730.018 338.269 C 732.188 335.101, 732.499 333.570, 732.491 326.073 C 732.481 316.041, 730.928 312.295, 725.222 308.545 C 719.360 304.692, 714.029 303.892, 690.250 303.298 L 668 302.742 668 336.915 M 749 337.134 L 749 371.267 769.750 370.746 C 795.816 370.091, 801.485 368.651, 809.457 360.663 C 813.565 356.545, 814.951 354.272, 816.304 349.434 C 818.566 341.344, 818.444 332.648, 815.955 324.588 C 810.858 308.087, 798.562 303, 763.776 303 L 749 303 749 337.134 M 271.780 315.632 C 271.514 316.109, 271.507 319.538, 271.765 323.250 L 272.233 330 286.467 330 C 294.296 330, 302.057 329.528, 303.713 328.950 C 309.401 326.967, 310.050 319.734, 304.798 316.868 C 302.102 315.396, 272.528 314.290, 271.780 315.632 M 434 325.500 L 434 335 447.351 335 C 454.694 335, 462.057 334.528, 463.713 333.950 C 468.771 332.187, 470.757 324.390, 467.250 320.061 C 464.821 317.064, 459.433 316.052, 445.750 316.024 L 434 316 434 325.500 M 683 325.387 L 683 335 696.750 334.996 C 708.693 334.993, 710.927 334.732, 713.750 333.011 C 716.690 331.219, 716.999 330.574, 716.985 326.265 C 716.957 317.768, 714.845 316.715, 696.750 316.180 L 683 315.773 683 325.387 M 764 336.347 L 764 357 776.288 357 C 787.060 357, 789.120 356.722, 792.980 354.750 C 799.113 351.616, 801.282 348.247, 801.803 341.043 C 802.485 331.623, 801.338 326.500, 797.678 322.620 C 793.633 318.331, 789.308 317.117, 775.250 316.327 L 764 315.694 764 336.347 M 616.746 321.015 C 615.933 322.932, 613.408 328.609, 611.134 333.632 C 608.860 338.655, 607 343.042, 607 343.382 C 607 343.722, 612.175 344, 618.500 344 C 624.825 344, 630 343.750, 630 343.445 C 630 342.852, 628.492 339.485, 622.192 326.015 L 618.223 317.529 616.746 321.015 M 271.955 342.147 C 271.930 342.341, 271.846 345.875, 271.769 350 L 271.627 357.500 287.611 357.500 C 306.569 357.500, 309 356.663, 309 350.132 C 309 343.217, 307.287 342.554, 288.396 342.147 C 279.378 341.953, 271.980 341.953, 271.955 342.147 M 218 353.709 C 214.282 355.076, 213 357.313, 213.015 362.405 C 213.033 368.399, 213.599 369.517, 217.335 370.937 C 227.565 374.827, 236.145 366.997, 231.890 357.657 C 230.115 353.762, 223.201 351.797, 218 353.709" stroke="none" fill="#fbfbfb" fill-rule="evenodd"/></svg>