<?xml version="1.0" encoding="utf-8"?>
<!-- Generator: Adobe Illustrator 19.2.1, SVG Export Plug-In . SVG Version: 6.00 Build 0)  -->
<svg version="1.1" id="layer" xmlns="http://www.w3.org/2000/svg" xmlns:xlink="http://www.w3.org/1999/xlink" x="0px" y="0px"
	 viewBox="0 0 652 652" style="enable-background:new 0 0 652 652;" xml:space="preserve">
<style type="text/css">
	.st0{fill:#8C2232;}
	.st1{fill:#142D51;}
</style>
<path id="_Path_9" class="st0" d="M621.5,361.9h-83.3v-83.3L621.5,361.9z"/>
<path class="st1" d="M87.5,279.1H73.5v50.3c-0.1,10.5-8.6,19.1-19.1,19.1c-5,0.1-9.9-2-13.4-5.6c-3.6-3.5-5.6-8.4-5.6-13.4v-50.3
	H21.5v50.3c-0.1,8.8,3.3,17.2,9.7,23.3c6.2,6.3,14.5,9.8,23.4,9.7c8.8,0.1,17.2-3.3,23.4-9.7c6.3-6.2,9.8-14.5,9.7-23.3v-50.3H87.5z
	 M167.8,362.3v-83.3h-14v55.5l-42.2-55.5h-9.9v83.3h13.9v-55.7l42.3,55.7H167.8z M226.3,279.1h-48.6V293H195v69.4H209V293h17.3
	V279.1z M303.6,279.1h-13.9v50.3c-0.2,10.5-9,18.9-19.5,18.7c-10.2-0.2-18.4-8.5-18.7-18.7v-50.3h-13.9v50.3c0,18.3,14.7,33,33,33
	s33-14.7,33-33V279.1z M345.9,279.1c-8.8-0.1-17.2,3.3-23.3,9.7c-6.3,6.2-9.8,14.5-9.6,23.3v17.3c-0.2,18.3,14.4,33.2,32.7,33.4
	c17.8,0.2,32.6-13.8,33.3-31.7h-14c-1,10.5-10.3,18.3-20.8,17.2c-9.8-0.9-17.3-9.1-17.3-19V312c0-10.5,8.6-19.1,19.1-19.1
	c9.9,0,18.1,7.6,19,17.3h13.9C378,292.8,363.4,279.1,345.9,279.1 M390,279.1h13.9v83.3H390V279.1z M455.9,362.3v-9.8l-31.9-31.9
	l31.9-31.9v-9.8H446l-41.6,41.6l41.6,41.6H455.9z M469.8,279.1h9.5v11.7h-9.5V279.1z M469.8,298.3h9.5v64.1h-9.5V298.3z
	 M486.8,298.2h10.7v-19.2h9.5v19.3h16.6v8.2h-16.6v39.4c0,5,3,8.2,8.1,8.2h8.6v8.4h-11.1c-8.6,0-15-6.4-15-15.1v-40.8h-10.7
	C486.8,306.5,486.8,298.2,486.8,298.2z"/>
</svg>
