<svg xmlns="http://www.w3.org/2000/svg" width="900" height="500" viewBox="0 0 900 500" version="1.1"><path d="M 18.882 190.250 C 18.243 191.601, 18.358 260.631, 19.010 267.224 C 21.146 288.821, 36.898 305.448, 58.750 309.172 C 81.162 312.991, 104.336 298.659, 111.150 276.765 C 112.821 271.396, 113 266.919, 113 230.411 L 113 190 103.043 190 L 93.085 190 92.793 230.250 C 92.508 269.340, 92.438 270.615, 90.335 274.500 C 87.753 279.270, 81.794 285.128, 77.137 287.474 C 64.790 293.694, 48.120 287.739, 41.210 274.638 L 38.500 269.500 38.197 229.750 L 37.894 190 28.447 190 C 23.251 190, 18.947 190.113, 18.882 190.250 M 134 250.036 L 134 310.072 143.750 309.786 L 153.500 309.500 154 270 L 154.500 230.500 184.500 270.243 L 214.500 309.985 221.500 309.743 L 228.500 309.500 228.758 249.750 L 229.016 190 219.008 190 L 209 190 209 229.500 C 209 251.225, 208.662 268.975, 208.250 268.945 C 207.838 268.914, 194.063 251.139, 177.640 229.445 L 147.781 190 140.890 190 L 134 190 134 250.036 M 243 200 L 243 210 255.500 210 L 268 210 268 260 L 268 310 278 310 L 288 310 288 260 L 288 210 300.500 210 L 313 210 313 200 L 313 190 278 190 L 243 190 243 200 M 329 228.451 C 329 252.578, 329.410 268.876, 330.102 272.201 C 336.714 304.005, 374.364 319.784, 401.615 302.171 C 413.105 294.744, 420.870 283.036, 422.948 270 C 423.526 266.379, 423.988 247.225, 423.992 226.750 L 424 190 414.043 190 L 404.086 190 403.793 229.750 L 403.500 269.500 400.563 274.802 C 397.457 280.408, 390.998 285.859, 385.101 287.852 C 371.360 292.494, 355.146 284.681, 350.554 271.205 C 349.255 267.392, 349 260.357, 349 228.322 L 349 190 339 190 L 329 190 329 228.451 M 471.949 191.759 C 454.921 196.379, 440.889 212.210, 438.052 230 C 436.759 238.109, 436.746 259.066, 438.028 268.945 C 439.810 282.677, 447.011 294.503, 458.098 301.907 C 485.644 320.301, 522.153 306.385, 530.508 274.307 C 533.041 264.585, 533.417 265, 522.079 265 L 512.159 265 511.457 268.250 C 509.790 275.973, 502.752 284.539, 495.640 287.502 C 482.565 292.948, 467.742 287.658, 460.602 275 C 457.518 269.532, 457.498 269.400, 457.153 252.340 C 456.710 230.473, 457.767 226.103, 465.325 218.545 C 472.924 210.946, 482.338 208.300, 492.113 211.015 C 500.777 213.421, 508.926 221.848, 511.156 230.706 L 512.237 235 522.119 235 C 533.242 235, 532.789 235.448, 530.511 226.703 C 527.422 214.843, 519.464 203.457, 510.192 197.632 C 499.454 190.886, 483.944 188.504, 471.949 191.759 M 548 250 L 548 310 558 310 L 568 310 568 250 L 568 190 558 190 L 548 190 548 250 M 598.744 219.756 L 569 249.512 598.756 279.256 L 628.512 309 635.756 309 L 643 309 643 302.299 L 643 295.598 620.010 272.531 L 597.019 249.464 620.010 226.490 L 643 203.516 643 196.758 L 643 190 635.744 190 L 628.487 190 598.744 219.756 M 663 198.500 L 663 207 669.500 207 L 676 207 676 198.500 L 676 190 669.500 190 L 663 190 663 198.500 M 702.778 203.750 L 702.500 217.500 694.750 217.792 L 687 218.084 687 223.500 L 687 228.916 694.750 229.208 L 702.500 229.500 703 262.500 C 703.554 299.059, 703.493 298.714, 710.422 304.797 C 715.031 308.844, 719.504 309.988, 730.750 309.994 L 740 310 740 304 L 740 298 732.968 298 C 729.100 298, 724.405 297.360, 722.534 296.579 C 716.239 293.948, 716 292.577, 716 259.050 L 716 229 728 229 L 740 229 740 223.500 L 740 218 728 218 L 716 218 716 204 L 716 190 709.528 190 L 703.056 190 702.778 203.750 M 761 249.500 L 761 309 820.747 309 L 880.494 309 821 249.500 C 788.278 216.775, 761.392 190, 761.253 190 C 761.114 190, 761 216.775, 761 249.500 M 663 264 L 663 310 669.500 310 L 676 310 676 264 L 676 218 669.500 218 L 663 218 663 264" stroke="none" fill="#152c54" fill-rule="evenodd"/><path d="M -0 250.001 L -0 500.002 450.250 499.751 L 900.500 499.500 900.752 249.750 L 901.004 0 450.502 0 L 0 0 -0 250.001 M 0.492 250.500 C 0.492 388, 0.608 444.101, 0.750 375.170 C 0.892 306.238, 0.892 193.738, 0.750 125.170 C 0.608 56.601, 0.492 113, 0.492 250.500 M 18.882 190.250 C 18.243 191.601, 18.358 260.631, 19.010 267.224 C 21.146 288.821, 36.898 305.448, 58.750 309.172 C 81.162 312.991, 104.336 298.659, 111.150 276.765 C 112.821 271.396, 113 266.919, 113 230.411 L 113 190 103.043 190 L 93.085 190 92.793 230.250 C 92.508 269.340, 92.438 270.615, 90.335 274.500 C 87.753 279.270, 81.794 285.128, 77.137 287.474 C 64.790 293.694, 48.120 287.739, 41.210 274.638 L 38.500 269.500 38.197 229.750 L 37.894 190 28.447 190 C 23.251 190, 18.947 190.113, 18.882 190.250 M 134 250.036 L 134 310.072 143.750 309.786 L 153.500 309.500 154 270 L 154.500 230.500 184.500 270.243 L 214.500 309.985 221.500 309.743 L 228.500 309.500 228.758 249.750 L 229.016 190 219.008 190 L 209 190 209 229.500 C 209 251.225, 208.662 268.975, 208.250 268.945 C 207.838 268.914, 194.063 251.139, 177.640 229.445 L 147.781 190 140.890 190 L 134 190 134 250.036 M 243 200 L 243 210 255.500 210 L 268 210 268 260 L 268 310 278 310 L 288 310 288 260 L 288 210 300.500 210 L 313 210 313 200 L 313 190 278 190 L 243 190 243 200 M 329 228.451 C 329 252.578, 329.410 268.876, 330.102 272.201 C 336.714 304.005, 374.364 319.784, 401.615 302.171 C 413.105 294.744, 420.870 283.036, 422.948 270 C 423.526 266.379, 423.988 247.225, 423.992 226.750 L 424 190 414.043 190 L 404.086 190 403.793 229.750 L 403.500 269.500 400.563 274.802 C 397.457 280.408, 390.998 285.859, 385.101 287.852 C 371.360 292.494, 355.146 284.681, 350.554 271.205 C 349.255 267.392, 349 260.357, 349 228.322 L 349 190 339 190 L 329 190 329 228.451 M 471.949 191.759 C 454.921 196.379, 440.889 212.210, 438.052 230 C 436.759 238.109, 436.746 259.066, 438.028 268.945 C 439.810 282.677, 447.011 294.503, 458.098 301.907 C 485.644 320.301, 522.153 306.385, 530.508 274.307 C 533.041 264.585, 533.417 265, 522.079 265 L 512.159 265 511.457 268.250 C 509.790 275.973, 502.752 284.539, 495.640 287.502 C 482.565 292.948, 467.742 287.658, 460.602 275 C 457.518 269.532, 457.498 269.400, 457.153 252.340 C 456.710 230.473, 457.767 226.103, 465.325 218.545 C 472.924 210.946, 482.338 208.300, 492.113 211.015 C 500.777 213.421, 508.926 221.848, 511.156 230.706 L 512.237 235 522.119 235 C 533.242 235, 532.789 235.448, 530.511 226.703 C 527.422 214.843, 519.464 203.457, 510.192 197.632 C 499.454 190.886, 483.944 188.504, 471.949 191.759 M 548 250 L 548 310 558 310 L 568 310 568 250 L 568 190 558 190 L 548 190 548 250 M 598.744 219.756 L 569 249.512 598.756 279.256 L 628.512 309 635.756 309 L 643 309 643 302.299 L 643 295.598 620.010 272.531 L 597.019 249.464 620.010 226.490 L 643 203.516 643 196.758 L 643 190 635.744 190 L 628.487 190 598.744 219.756 M 663 198.500 L 663 207 669.500 207 L 676 207 676 198.500 L 676 190 669.500 190 L 663 190 663 198.500 M 702.778 203.750 L 702.500 217.500 694.750 217.792 L 687 218.084 687 223.500 L 687 228.916 694.750 229.208 L 702.500 229.500 703 262.500 C 703.554 299.059, 703.493 298.714, 710.422 304.797 C 715.031 308.844, 719.504 309.988, 730.750 309.994 L 740 310 740 304 L 740 298 732.968 298 C 729.100 298, 724.405 297.360, 722.534 296.579 C 716.239 293.948, 716 292.577, 716 259.050 L 716 229 728 229 L 740 229 740 223.500 L 740 218 728 218 L 716 218 716 204 L 716 190 709.528 190 L 703.056 190 702.778 203.750 M 761 249.500 L 761 309 820.747 309 L 880.494 309 821 249.500 C 788.278 216.775, 761.392 190, 761.253 190 C 761.114 190, 761 216.775, 761 249.500 M 663 264 L 663 310 669.500 310 L 676 310 676 264 L 676 218 669.500 218 L 663 218 663 264" stroke="none" fill="#fbfbfb" fill-rule="evenodd"/></svg>