<svg viewBox="0 0 1200 500" xmlns="http://www.w3.org/2000/svg" fill="none">
  <rect width="1200" height="500" fill="#ffffff"/>
  <!-- Left panel: Failed search (red) -->
  <rect x="40" y="40" width="540" height="420" rx="16" fill="#fef2f2" stroke="#fca5a5" stroke-width="2"/>
  <text x="310" y="85" text-anchor="middle" font-family="system-ui, sans-serif" font-size="18" font-weight="700" fill="#dc2626">Traditional Keyword Search</text>
  <!-- Search bar left -->
  <rect x="80" y="110" width="460" height="50" rx="25" fill="#ffffff" stroke="#e5e7eb" stroke-width="2"/>
  <text x="100" y="142" font-family="system-ui, sans-serif" font-size="15" fill="#6b7280">dress for beach wedding</text>
  <circle cx="510" cy="135" r="18" fill="#ef4444"/>
  <path d="M504 129l12 12M516 129l-12 12" stroke="#fff" stroke-width="2.5" stroke-linecap="round"/>
  <!-- 0 Results -->
  <rect x="80" y="185" width="460" height="240" rx="12" fill="#ffffff" stroke="#fecaca" stroke-width="1.5"/>
  <circle cx="310" cy="280" r="40" fill="#fee2e2"/>
  <text x="310" y="288" text-anchor="middle" font-family="system-ui, sans-serif" font-size="28" font-weight="800" fill="#dc2626">0</text>
  <text x="310" y="345" text-anchor="middle" font-family="system-ui, sans-serif" font-size="20" font-weight="600" fill="#991b1b">No results found</text>
  <text x="310" y="375" text-anchor="middle" font-family="system-ui, sans-serif" font-size="14" fill="#b91c1c">Try different keywords</text>
  <!-- Divider -->
  <line x1="600" y1="60" x2="600" y2="440" stroke="#e2e8f0" stroke-width="2" stroke-dasharray="8 6"/>
  <circle cx="600" cy="250" r="22" fill="#f1f5f9" stroke="#cbd5e1" stroke-width="2"/>
  <text x="600" y="256" text-anchor="middle" font-family="system-ui, sans-serif" font-size="14" font-weight="700" fill="#64748b">VS</text>
  <!-- Right panel: AI search (green) -->
  <rect x="620" y="40" width="540" height="420" rx="16" fill="#f0fdf4" stroke="#86efac" stroke-width="2"/>
  <text x="890" y="85" text-anchor="middle" font-family="system-ui, sans-serif" font-size="18" font-weight="700" fill="#16a34a">AI Shopping Assistant</text>
  <!-- Search bar right -->
  <rect x="660" y="110" width="460" height="50" rx="25" fill="#ffffff" stroke="#e5e7eb" stroke-width="2"/>
  <text x="680" y="142" font-family="system-ui, sans-serif" font-size="15" fill="#6b7280">dress for beach wedding</text>
  <circle cx="1090" cy="135" r="18" fill="#22c55e"/>
  <path d="M1082 135l5 5 10-10" stroke="#fff" stroke-width="2.5" stroke-linecap="round" stroke-linejoin="round"/>
  <!-- Results -->
  <rect x="660" y="185" width="460" height="70" rx="10" fill="#ffffff" stroke="#bbf7d0" stroke-width="1.5"/>
  <rect x="675" y="195" width="50" height="50" rx="6" fill="#dcfce7"/>
  <text x="740" y="218" font-family="system-ui, sans-serif" font-size="14" font-weight="600" fill="#1e293b">Flowy Maxi Dress - Coral</text>
  <text x="740" y="236" font-family="system-ui, sans-serif" font-size="12" fill="#16a34a">Light fabric, beach-ready</text>
  <rect x="660" y="265" width="460" height="70" rx="10" fill="#ffffff" stroke="#bbf7d0" stroke-width="1.5"/>
  <rect x="675" y="275" width="50" height="50" rx="6" fill="#dcfce7"/>
  <text x="740" y="298" font-family="system-ui, sans-serif" font-size="14" font-weight="600" fill="#1e293b">Linen Wrap Dress - Sand</text>
  <text x="740" y="316" font-family="system-ui, sans-serif" font-size="12" fill="#16a34a">Elegant, breathable, wedding-appropriate</text>
  <rect x="660" y="345" width="460" height="70" rx="10" fill="#ffffff" stroke="#bbf7d0" stroke-width="1.5"/>
  <rect x="675" y="355" width="50" height="50" rx="6" fill="#dcfce7"/>
  <text x="740" y="378" font-family="system-ui, sans-serif" font-size="14" font-weight="600" fill="#1e293b">Chiffon Midi Dress - Sky Blue</text>
  <text x="740" y="396" font-family="system-ui, sans-serif" font-size="12" fill="#16a34a">Semi-formal, tropical style</text>
  <text x="890" y="440" text-anchor="middle" font-family="system-ui, sans-serif" font-size="14" font-weight="600" fill="#16a34a">12 relevant results</text>
</svg>