<svg viewBox="0 0 1200 500" xmlns="http://www.w3.org/2000/svg" fill="none">
  <rect width="1200" height="500" fill="#ffffff"/>

  <!-- Left side: Your Store -->
  <rect x="40" y="30" width="540" height="440" rx="16" fill="#fff7ed" stroke="#fed7aa" stroke-width="2"/>
  <text x="310" y="70" text-anchor="middle" font-family="system-ui, sans-serif" font-size="18" font-weight="700" fill="#9a3412">Your Store's Search</text>

  <!-- Search bar left -->
  <rect x="80" y="95" width="460" height="44" rx="8" fill="#ffffff" stroke="#d1d5db" stroke-width="1.5"/>
  <text x="100" y="122" font-family="system-ui, sans-serif" font-size="14" fill="#6b7280">comfortable running shoes for flat feet</text>
  <circle cx="510" cy="117" r="14" fill="#ea580c"/>
  <path d="M505 112 L515 122 M515 112 L505 122" stroke="#ffffff" stroke-width="2" stroke-linecap="round"/>

  <!-- No results message -->
  <rect x="80" y="160" width="460" height="280" rx="8" fill="#fef2f2" stroke="#fecaca" stroke-width="1"/>
  <circle cx="310" cy="260" r="40" fill="#fee2e2"/>
  <text x="310" y="268" text-anchor="middle" font-family="system-ui, sans-serif" font-size="36" fill="#dc2626">0</text>
  <text x="310" y="325" text-anchor="middle" font-family="system-ui, sans-serif" font-size="20" font-weight="600" fill="#991b1b">No results found</text>
  <text x="310" y="355" text-anchor="middle" font-family="system-ui, sans-serif" font-size="14" fill="#b91c1c">Try different keywords or browse categories</text>
  <text x="310" y="410" text-anchor="middle" font-family="system-ui, sans-serif" font-size="13" fill="#9ca3af">Customer thinks: "They don't sell running shoes?"</text>
  <text x="310" y="430" text-anchor="middle" font-family="system-ui, sans-serif" font-size="13" font-weight="600" fill="#ea580c">Opens Amazon in new tab...</text>

  <!-- Divider arrow -->
  <text x="600" y="260" text-anchor="middle" font-family="system-ui, sans-serif" font-size="28" fill="#d1d5db">VS</text>

  <!-- Right side: Amazon-like -->
  <rect x="620" y="30" width="540" height="440" rx="16" fill="#f0fdf4" stroke="#bbf7d0" stroke-width="2"/>
  <text x="890" y="70" text-anchor="middle" font-family="system-ui, sans-serif" font-size="18" font-weight="700" fill="#166534">Smart Search Experience</text>

  <!-- Search bar right -->
  <rect x="660" y="95" width="460" height="44" rx="8" fill="#ffffff" stroke="#d1d5db" stroke-width="1.5"/>
  <text x="680" y="122" font-family="system-ui, sans-serif" font-size="14" fill="#6b7280">comfortable running shoes for flat feet</text>
  <circle cx="1090" cy="117" r="14" fill="#16a34a"/>
  <path d="M1084 117 L1088 121 L1096 113" stroke="#ffffff" stroke-width="2" stroke-linecap="round" stroke-linejoin="round"/>

  <!-- Results -->
  <text x="660" y="175" font-family="system-ui, sans-serif" font-size="13" fill="#6b7280">Showing 47 results for stability &amp; support running shoes</text>

  <!-- Product card 1 -->
  <rect x="660" y="190" width="220" height="120" rx="8" fill="#ffffff" stroke="#e5e7eb" stroke-width="1"/>
  <rect x="670" y="200" width="60" height="60" rx="4" fill="#f1f5f9"/>
  <rect x="680" y="215" width="40" height="30" rx="2" fill="#cbd5e1"/>
  <text x="740" y="218" font-family="system-ui, sans-serif" font-size="12" font-weight="600" fill="#1e293b">Stability Runner Pro</text>
  <text x="740" y="236" font-family="system-ui, sans-serif" font-size="11" fill="#64748b">Arch support, cushioned</text>
  <text x="740" y="254" font-family="system-ui, sans-serif" font-size="11" fill="#64748b">sole, motion control</text>
  <rect x="740" y="264" width="60" height="6" rx="3" fill="#fbbf24"/>
  <rect x="740" y="264" width="48" height="6" rx="3" fill="#f59e0b"/>
  <text x="670" y="300" font-family="system-ui, sans-serif" font-size="13" font-weight="600" fill="#ea580c">$129.99</text>

  <!-- Product card 2 -->
  <rect x="900" y="190" width="220" height="120" rx="8" fill="#ffffff" stroke="#e5e7eb" stroke-width="1"/>
  <rect x="910" y="200" width="60" height="60" rx="4" fill="#f1f5f9"/>
  <rect x="920" y="215" width="40" height="30" rx="2" fill="#cbd5e1"/>
  <text x="980" y="218" font-family="system-ui, sans-serif" font-size="12" font-weight="600" fill="#1e293b">FlatFoot Comfort Max</text>
  <text x="980" y="236" font-family="system-ui, sans-serif" font-size="11" fill="#64748b">Orthopedic insole,</text>
  <text x="980" y="254" font-family="system-ui, sans-serif" font-size="11" fill="#64748b">wide toe box, EVA foam</text>
  <rect x="980" y="264" width="60" height="6" rx="3" fill="#fbbf24"/>
  <rect x="980" y="264" width="54" height="6" rx="3" fill="#f59e0b"/>
  <text x="910" y="300" font-family="system-ui, sans-serif" font-size="13" font-weight="600" fill="#ea580c">$149.99</text>

  <!-- Product card 3 -->
  <rect x="660" y="320" width="220" height="120" rx="8" fill="#ffffff" stroke="#e5e7eb" stroke-width="1"/>
  <rect x="670" y="330" width="60" height="60" rx="4" fill="#f1f5f9"/>
  <rect x="680" y="345" width="40" height="30" rx="2" fill="#cbd5e1"/>
  <text x="740" y="348" font-family="system-ui, sans-serif" font-size="12" font-weight="600" fill="#1e293b">Cloud Support Daily</text>
  <text x="740" y="366" font-family="system-ui, sans-serif" font-size="11" fill="#64748b">Pronation control,</text>
  <text x="740" y="384" font-family="system-ui, sans-serif" font-size="11" fill="#64748b">breathable mesh upper</text>
  <rect x="740" y="394" width="60" height="6" rx="3" fill="#fbbf24"/>
  <rect x="740" y="394" width="42" height="6" rx="3" fill="#f59e0b"/>
  <text x="670" y="430" font-family="system-ui, sans-serif" font-size="13" font-weight="600" fill="#ea580c">$119.99</text>

  <!-- Product card 4 -->
  <rect x="900" y="320" width="220" height="120" rx="8" fill="#ffffff" stroke="#e5e7eb" stroke-width="1"/>
  <rect x="910" y="330" width="60" height="60" rx="4" fill="#f1f5f9"/>
  <rect x="920" y="345" width="40" height="30" rx="2" fill="#cbd5e1"/>
  <text x="980" y="348" font-family="system-ui, sans-serif" font-size="12" font-weight="600" fill="#1e293b">Trail Grip Stability</text>
  <text x="980" y="366" font-family="system-ui, sans-serif" font-size="11" fill="#64748b">Medial post support,</text>
  <text x="980" y="384" font-family="system-ui, sans-serif" font-size="11" fill="#64748b">all-terrain traction</text>
  <rect x="980" y="394" width="60" height="6" rx="3" fill="#fbbf24"/>
  <rect x="980" y="394" width="50" height="6" rx="3" fill="#f59e0b"/>
  <text x="910" y="430" font-family="system-ui, sans-serif" font-size="13" font-weight="600" fill="#ea580c">$139.99</text>
</svg>