<svg viewBox="0 0 1200 500" xmlns="http://www.w3.org/2000/svg" font-family="system-ui, -apple-system, sans-serif">
  <rect width="1200" height="500" fill="#f8fafc"/>

  <!-- Left side: Shopper query -->
  <rect x="40" y="60" width="480" height="380" rx="16" fill="#ffffff" stroke="#e2e8f0" stroke-width="1.5"/>
  <text x="280" y="100" text-anchor="middle" font-size="18" font-weight="700" fill="#1e293b">What Shoppers Type</text>

  <!-- Search bar mockup -->
  <rect x="80" y="130" width="400" height="48" rx="24" fill="#f1f5f9" stroke="#cbd5e1" stroke-width="1"/>
  <circle cx="108" cy="154" r="12" fill="none" stroke="#94a3b8" stroke-width="2"/>
  <line x1="116" y1="162" x2="122" y2="168" stroke="#94a3b8" stroke-width="2"/>
  <text x="140" y="159" font-size="15" fill="#475569">"comfortable shoes for standing all day"</text>

  <!-- Intent bubbles -->
  <rect x="80" y="200" width="120" height="36" rx="18" fill="#eef2ff" stroke="#c7d2fe" stroke-width="1"/>
  <text x="140" y="223" text-anchor="middle" font-size="13" fill="#4338ca">Comfort</text>

  <rect x="215" y="200" width="120" height="36" rx="18" fill="#eef2ff" stroke="#c7d2fe" stroke-width="1"/>
  <text x="275" y="223" text-anchor="middle" font-size="13" fill="#4338ca">Support</text>

  <rect x="350" y="200" width="120" height="36" rx="18" fill="#eef2ff" stroke="#c7d2fe" stroke-width="1"/>
  <text x="410" y="223" text-anchor="middle" font-size="13" fill="#4338ca">All-Day Wear</text>

  <!-- More query examples -->
  <rect x="80" y="260" width="400" height="40" rx="8" fill="#f8fafc"/>
  <text x="100" y="285" font-size="14" fill="#64748b">"gift for mom who loves cooking"</text>

  <rect x="80" y="310" width="400" height="40" rx="8" fill="#f8fafc"/>
  <text x="100" y="335" font-size="14" fill="#64748b">"waterproof jacket under $100"</text>

  <rect x="80" y="360" width="400" height="40" rx="8" fill="#f8fafc"/>
  <text x="100" y="385" font-size="14" fill="#64748b">"something cozy for movie night"</text>

  <!-- Arrow -->
  <g transform="translate(540, 220)">
    <rect x="0" y="0" width="120" height="60" rx="30" fill="#4f46e5"/>
    <text x="40" y="26" font-size="12" font-weight="600" fill="#ffffff">AI</text>
    <text x="20" y="44" font-size="11" fill="#c7d2fe">Understands</text>
    <path d="M95 30 L115 30 M108 23 L115 30 L108 37" stroke="#ffffff" stroke-width="2" fill="none"/>
  </g>

  <!-- Right side: AI results -->
  <rect x="680" y="60" width="480" height="380" rx="16" fill="#ffffff" stroke="#e2e8f0" stroke-width="1.5"/>
  <text x="920" y="100" text-anchor="middle" font-size="18" font-weight="700" fill="#1e293b">What AI Returns</text>

  <!-- Product cards -->
  <rect x="720" y="125" width="180" height="140" rx="12" fill="#f8fafc" stroke="#e2e8f0" stroke-width="1"/>
  <rect x="740" y="140" width="140" height="70" rx="8" fill="#eef2ff"/>
  <text x="810" y="180" text-anchor="middle" font-size="22" fill="#4f46e5">&#128095;</text>
  <text x="810" y="230" text-anchor="middle" font-size="12" font-weight="600" fill="#1e293b">Cloud Walker Pro</text>
  <text x="810" y="248" text-anchor="middle" font-size="11" fill="#22c55e">98% match</text>

  <rect x="920" y="125" width="180" height="140" rx="12" fill="#f8fafc" stroke="#e2e8f0" stroke-width="1"/>
  <rect x="940" y="140" width="140" height="70" rx="8" fill="#eef2ff"/>
  <text x="1010" y="180" text-anchor="middle" font-size="22" fill="#4f46e5">&#128094;</text>
  <text x="1010" y="230" text-anchor="middle" font-size="12" font-weight="600" fill="#1e293b">ErgoPad Slip-On</text>
  <text x="1010" y="248" text-anchor="middle" font-size="11" fill="#22c55e">95% match</text>

  <rect x="720" y="280" width="180" height="140" rx="12" fill="#f8fafc" stroke="#e2e8f0" stroke-width="1"/>
  <rect x="740" y="295" width="140" height="70" rx="8" fill="#eef2ff"/>
  <text x="810" y="335" text-anchor="middle" font-size="22" fill="#4f46e5">&#129406;</text>
  <text x="810" y="385" text-anchor="middle" font-size="12" font-weight="600" fill="#1e293b">StandAll Comfort</text>
  <text x="810" y="403" text-anchor="middle" font-size="11" fill="#22c55e">93% match</text>

  <rect x="920" y="280" width="180" height="140" rx="12" fill="#f8fafc" stroke="#e2e8f0" stroke-width="1"/>
  <rect x="940" y="295" width="140" height="70" rx="8" fill="#eef2ff"/>
  <text x="1010" y="335" text-anchor="middle" font-size="22" fill="#4f46e5">&#128096;</text>
  <text x="1010" y="385" text-anchor="middle" font-size="12" font-weight="600" fill="#1e293b">DayLong Sneaker</text>
  <text x="1010" y="403" text-anchor="middle" font-size="11" fill="#22c55e">91% match</text>

  <!-- Bottom label -->
  <text x="600" y="478" text-anchor="middle" font-size="14" fill="#94a3b8">AI Shopping Assistant: From natural language to perfect product matches</text>
</svg>