<svg xmlns="http://www.w3.org/2000/svg" width="177" height="36" viewBox="0 0 177 36" fill="none"><g clip-path="url(#clip0_1036_3532)"><path d="M50.9042 13.5325C53.3843 13.5325 55.4021 15.5698 55.4021 18.074C55.4021 20.5782 53.3843 22.6156 50.9042 22.6156H48.2068V26.2446H46.4062V13.5254H50.9042V13.5325ZM50.9042 20.8046C52.3964 20.8046 53.6015 19.5879 53.6015 18.0811C53.6015 16.5743 52.3964 15.3576 50.9042 15.3576H48.2068V20.8117H50.9042V20.8046Z" fill="#151618"></path><path d="M67.1048 26.2512C64.1202 26.2512 61.7031 23.8177 61.7031 20.8041V13.5391H63.5037V20.8041C63.5037 22.8203 65.1081 24.4402 67.1048 24.4402C69.1015 24.4402 70.7059 22.8203 70.7059 20.8041V13.5391H72.5065V20.8041C72.5065 23.8177 70.0964 26.2512 67.1048 26.2512Z" fill="#151618"></path><path d="M82.2146 24.4324H89.4099V26.2504H80.4141V13.5312H82.2146V24.4324Z" fill="#151618"></path><path d="M98.2303 24.4324H105.425V26.2504H96.4297V13.5312H98.2303V24.4324Z" fill="#151618"></path><path d="M121.575 26.2504H119.417L117.063 22.6214H114.254V26.2504H112.453V13.5312H116.951C119.431 13.5312 121.449 15.5686 121.449 18.0728C121.449 19.8696 120.426 21.4189 118.913 22.1616L121.575 26.2504ZM114.247 20.8034H116.944C118.436 20.8034 119.641 19.5867 119.641 18.0799C119.641 16.5731 118.436 15.3564 116.944 15.3564H114.247V20.8105V20.8034Z" fill="#151618"></path><path d="M137.788 23.9804H130.298L129.072 26.2512H127.02L134.04 13.2773L141.074 26.2512H139.021L137.781 23.9804H137.788ZM136.814 22.1624L134.04 17.0549L131.286 22.1624H136.807H136.814Z" fill="#151618"></path><path d="M158.476 13.5312V26.2504H158.371L149.48 17.6767V26.2504H147.68V13.5312H147.771L156.675 22.105V13.5312H158.476Z" fill="#151618"></path><path d="M174.527 26.2517L170.568 19.8708L168.551 22.085V26.2446H166.75V13.5254H168.551V19.411L173.896 13.5254H176.341L171.843 18.4843L176.65 26.2446H174.527V26.2517Z" fill="#151618"></path><path d="M36.3125 15.2581V13.5391H38.1131V15.2581H36.3125Z" fill="#151618"></path><path d="M36.3125 26.1875V17.3166H38.1131V26.1875H36.3125Z" fill="#151618"></path><path fill-rule="evenodd" clip-rule="evenodd" d="M23.1068 0C23.1068 0 23.1629 1.72608 23.0298 4.11004H28.4525V4.11712C28.4525 4.11712 29.6785 16.0016 17.6 18.9727C16.6402 19.8074 15.4562 20.6422 14.2441 21.0242V21.0149L14.2437 21.0171C13.0247 20.6351 11.8477 19.8004 10.8878 18.9656C-1.19765 15.9945 0.035416 4.11004 0.035416 4.11004H5.45812C5.33201 1.719 5.38105 0 5.38105 0H23.1068ZM11.8897 9.50756L12.3381 6.86186L10.4394 4.98723L13.0667 4.59815L14.2437 2.19297L14.2441 2.20004L15.4212 4.60523L18.0484 4.9943L16.1498 6.86893L16.5982 9.51464L14.245 8.27006L14.2437 8.26253L11.8897 9.50756ZM2.57161 5.93515H5.59123C5.88549 9.32364 6.57909 13.3912 8.14845 15.9238C5.53518 14.4382 2.35443 11.4812 2.57161 5.93515ZM20.3394 15.9238C21.9088 13.3912 22.5954 9.32364 22.8966 5.93515H25.9163C26.1334 11.4812 22.9527 14.4382 20.3394 15.9238Z" fill="#151618"></path><path d="M14.2271 24.0526L14.2289 24.0526V24.0513C14.8314 24.0513 15.3288 23.5491 15.3288 22.9407C15.3288 22.3323 14.8384 21.8301 14.2289 21.8301V21.8242C13.6193 21.8242 13.1289 22.3194 13.1289 22.9348V22.9478C13.1289 23.5562 13.6193 24.0584 14.2289 24.0584L14.2271 24.0526Z" fill="#151618"></path><path d="M13.1289 26.1529V26.1607C13.1289 26.7761 13.6193 27.2713 14.2289 27.2713L14.2265 27.2635L14.2289 27.2642C14.8314 27.2642 15.3288 26.769 15.3288 26.1536C15.3288 25.5382 14.8384 25.043 14.2289 25.043V25.0352C13.6193 25.0352 13.1289 25.5303 13.1289 26.1458V26.1529Z" fill="#151618"></path><path d="M17.13 36.0009H11.3359L14.2294 31.5371L17.13 36.0009Z" fill="#151618"></path><path d="M14.2363 28.2461C14.8459 28.2461 15.3363 28.7413 15.3363 29.3567V29.3638C15.3363 29.9792 14.8459 30.4744 14.2363 30.4744L14.2289 30.4515V30.4674C13.6263 30.4674 13.1289 29.9722 13.1289 29.3567C13.1289 28.7413 13.6193 28.2461 14.2289 28.2461V28.2692L14.2363 28.2461Z" fill="#151618"></path></g><defs><clipPath id="clip0_1036_3532"><rect width="176.651" height="36" fill="white"></rect></clipPath></defs></svg>